<svg xmlns="http://www.w3.org/2000/svg" width="89.074" height="43.701" viewBox="0 0 89.074 43.701">
  <g id="Group_10882" data-name="Group 10882" transform="translate(19899.633 20444.857)">
    <path id="Path_15290" data-name="Path 15290" d="M69.308,36.746a44.438,44.438,0,0,1-.281,4.789,20.026,20.026,0,0,1-1.06,3.97,15.83,15.83,0,0,1-4.647,6.05,1.037,1.037,0,0,1-1.466-.158l-.031-.031a1.052,1.052,0,0,1,.156-1.45,14.575,14.575,0,0,0,4.054-5.325,14.561,14.561,0,0,0,.9-3.56,35.747,35.747,0,0,0,.249-4.285v-.724H61.771a1.024,1.024,0,0,1-1.029-1.04v-.063a1,1,0,0,1,1.029-1.04h25.22a1,1,0,0,1,1.029,1.04v.063a1.024,1.024,0,0,1-1.029,1.04H80.442V48.372a1.748,1.748,0,0,0,.5,1.261,1.662,1.662,0,0,0,1.247.5h4.335a1.043,1.043,0,0,1,1.029,1.04v.063a1.024,1.024,0,0,1-1.029,1.04H82.188a3.447,3.447,0,0,1-1.5-.315,3.877,3.877,0,0,1-2.09-2.079,4.236,4.236,0,0,1-.311-1.512V36.022H69.308Z" transform="translate(-19960.375 -20453.436)" fill="#218431"/>
    <path id="Path_15291" data-name="Path 15291" d="M113.971,51.146a1,1,0,0,1-1,1.04h-.062a1.023,1.023,0,0,1-1.03-1.04V44.12h-.156a.977.977,0,0,1-.187.409,26.8,26.8,0,0,1-7.39,6.9,1.049,1.049,0,0,1-1.435-.347l-.031-.063a1.079,1.079,0,0,1,.311-1.418,26.923,26.923,0,0,0,3.836-2.961A22.611,22.611,0,0,0,109.2,44.12h-5.115a1.044,1.044,0,0,1-1.029-1.04v-.032a1.044,1.044,0,0,1,1.029-1.04h7.8V38.333a1.043,1.043,0,0,1,1.03-1.04h.062a1.017,1.017,0,0,1,1,1.04v3.675H121.7a1.023,1.023,0,0,1,1.029,1.04v.032a1.023,1.023,0,0,1-1.029,1.04h-4.9l5.926,5.608a1.044,1.044,0,0,1,.063,1.449l-.031.063a.96.96,0,0,1-.718.314.98.98,0,0,1-.717-.284l-7.11-6.711a.62.62,0,0,1-.249-.378Zm8.919-17.267a3.922,3.922,0,0,1,4.023,3.529l1.466,13.454a1.024,1.024,0,0,1-.9,1.135h-.063a1.01,1.01,0,0,1-1.153-.914l-1.435-13.454a1.831,1.831,0,0,0-.655-1.165,1.783,1.783,0,0,0-1.279-.473H102.93a1,1,0,0,1-1.029-1.04v-.031a1.024,1.024,0,0,1,1.029-1.04ZM108.211,39.25a1.056,1.056,0,0,1,0,1.471l-.045.044a1.025,1.025,0,0,1-1.433-.022l-1.455-1.47a1.029,1.029,0,0,1-.022-1.448l.043-.045a1.01,1.01,0,0,1,1.455,0Z" transform="translate(-19970.793 -20453.436)" fill="#218431"/>
    <path id="Path_15292" data-name="Path 15292" d="M85.309,22.448a1.043,1.043,0,0,1,1.029,1.04v.063a1.064,1.064,0,0,1-1.029,1.039H64.861a1.043,1.043,0,0,1-1.029-1.039v-.063a1.023,1.023,0,0,1,1.029-1.04Z" transform="translate(-19961.156 -20450.541)" fill="#218431"/>
    <path id="Path_15293" data-name="Path 15293" d="M109.227,21.881h18.651a1.065,1.065,0,0,1,1.029,1.04v.063a1.024,1.024,0,0,1-1.029,1.04H107.636a1.008,1.008,0,0,1-.873-.441,1.17,1.17,0,0,1-.125-1.008l.811-1.733a1.048,1.048,0,0,1,1.31-.567l.187.063a.868.868,0,0,1,.437,1.166Z" transform="translate(-19971.975 -20449.975)" fill="#218431"/>
    <path id="Path_15294" data-name="Path 15294" d="M124.918,40.219a1.541,1.541,0,1,1-1.54-1.556,1.548,1.548,0,0,1,1.54,1.556" transform="translate(-19975.838 -20454.646)" fill="#218431"/>
    <path id="Path_15295" data-name="Path 15295" d="M125.566,28.185a1.065,1.065,0,0,1,1.029,1.04v.031a1.066,1.066,0,0,1-1.029,1.04H105.243a1.024,1.024,0,0,1-1.029-1.04v-.031a1.023,1.023,0,0,1,1.029-1.04Z" transform="translate(-19971.379 -20451.994)" fill="#218431"/>
    <path id="Path_15296" data-name="Path 15296" d="M146.211,28.669h2.744l1.622-2.741a1.048,1.048,0,0,1,1.434-.347l.063.031a1.027,1.027,0,0,1,.343,1.418l-6.269,10.618h2.781c.374,0,1.742-.275,1.742-1.557v-.769a1.044,1.044,0,0,1,1.029-1.04h.031a1.044,1.044,0,0,1,1.029,1.04v1.064a3.656,3.656,0,0,1-.25,1.292,3.35,3.35,0,0,1-3.056,2.111h-5.177a1.083,1.083,0,0,1-.9-1.607l4.335-7.373h-3.43a1.072,1.072,0,0,1-.9-1.607l4.772-8.16a1.047,1.047,0,0,1,1.4-.347l.062.031a1.037,1.037,0,0,1,.375,1.418Z" transform="translate(-19981.254 -20450.063)" fill="#218431"/>
    <path id="Path_15297" data-name="Path 15297" d="M145.32,54.635a1.024,1.024,0,0,1-1.029,1.04h-.031a1.023,1.023,0,0,1-1.029-1.04V49.247a1.024,1.024,0,0,1,1.029-1.04h.031a1.024,1.024,0,0,1,1.029,1.04Z" transform="translate(-19981.254 -20457.063)" fill="#218431"/>
    <path id="Path_15298" data-name="Path 15298" d="M149.821,54.635a1.017,1.017,0,0,1-1,1.04h-.063a1.023,1.023,0,0,1-1.028-1.04V49.247a1.023,1.023,0,0,1,1.028-1.04h.063a1.017,1.017,0,0,1,1,1.04Z" transform="translate(-19982.393 -20457.063)" fill="#218431"/>
    <path id="Path_15299" data-name="Path 15299" d="M154.323,54.635a1.037,1.037,0,0,1-1.029,1.04h-.031a1.037,1.037,0,0,1-1.029-1.04V49.263a1.045,1.045,0,1,1,2.09,0Z" transform="translate(-19983.531 -20457.063)" fill="#218431"/>
    <path id="Path_15300" data-name="Path 15300" d="M170.841,30.485a1.044,1.044,0,0,1,1.029,1.04v.063a1.029,1.029,0,0,1-.91,1.039h-7.62a1.073,1.073,0,0,1-1.148-1.039v-.063a1.044,1.044,0,0,1,1.029-1.04h.884V27.944a1.044,1.044,0,0,1,1.029-1.04h.031a1.043,1.043,0,0,1,1.028,1.04v2.542H167.9V27.944a1.044,1.044,0,0,1,1.029-1.04h.063a1.043,1.043,0,0,1,1.028,1.04v2.542Z" transform="translate(-19986.053 -20451.67)" fill="#218431"/>
    <path id="Path_15301" data-name="Path 15301" d="M171.126,38.482a1.024,1.024,0,0,1,1.029,1.04v.031a1.023,1.023,0,0,1-1.029,1.04h-6v4.579a1.268,1.268,0,0,0,.344.914,1.173,1.173,0,0,0,.873.378h4.792a1.024,1.024,0,0,1,1.029,1.04v.031a1.044,1.044,0,0,1-1.029,1.04h-4.792a3.326,3.326,0,0,1-3.025-2.079,3.165,3.165,0,0,1-.312-1.323V40.592h-.385a1.023,1.023,0,0,1-1.028-1.04v-.031a1.023,1.023,0,0,1,1.028-1.04h3.191V37.127a1.066,1.066,0,0,1,1.03-1.04h.062a1.044,1.044,0,0,1,1.029,1.04v1.355Z" transform="translate(-19985.9 -20453.994)" fill="#218431"/>
    <path id="Path_15302" data-name="Path 15302" d="M170.367,46.71a1.73,1.73,0,0,0,1.279-.5,1.88,1.88,0,0,0,.468-1.292V25.19a1.88,1.88,0,0,0-.468-1.292,1.757,1.757,0,0,0-1.279-.536h-9.1a1.71,1.71,0,0,0-1.279.536,1.769,1.769,0,0,0-.5,1.292V47.843a1.044,1.044,0,0,1-1.028,1.04h-.094a1.044,1.044,0,0,1-1.029-1.04V25.19a4.263,4.263,0,0,1,.312-1.544,4.156,4.156,0,0,1,2.09-2.111,4,4,0,0,1,1.528-.283h9.1a4.24,4.24,0,0,1,1.528.283,4.1,4.1,0,0,1,2.058,2.111,3.7,3.7,0,0,1,.311,1.544V44.913a3.8,3.8,0,0,1-.311,1.545,3.929,3.929,0,0,1-2.058,2.079,4.26,4.26,0,0,1-1.528.315h-1.092a1.023,1.023,0,0,1-1.029-1.04v-.063a1.044,1.044,0,0,1,1.029-1.04Z" transform="translate(-19984.824 -20450.238)" fill="#218431"/>
    <path id="Path_15303" data-name="Path 15303" d="M157.126,11.2h-.368V10.186h-.026a2.157,2.157,0,0,1-2.02,1.112,2.13,2.13,0,0,1-2.227-2.368V4.94h1.167V8.6c0,1.164.659,1.6,1.4,1.6.972,0,1.71-.627,1.71-2.067V4.94h1.165v5.452a.784.784,0,0,1-.8.806" transform="translate(-19983.596 -20446.109)" fill="#218431"/>
    <path id="Path_15304" data-name="Path 15304" d="M173.516,4.828h.367V5.841h.026a2.157,2.157,0,0,1,2.02-1.112A2.13,2.13,0,0,1,178.157,7.1v3.99h-1.166V7.425c0-1.164-.66-1.6-1.4-1.6-.972,0-1.71.628-1.71,2.067v3.192h-1.165V5.634a.784.784,0,0,1,.8-.806" transform="translate(-19988.717 -20446.057)" fill="#218431"/>
    <path id="Path_15305" data-name="Path 15305" d="M168.175,0h-1.165V4.579h-.026a2.56,2.56,0,0,0-2.137-1.046,3.056,3.056,0,0,0-3.12,3.258,3.063,3.063,0,0,0,3.12,3.257A2.612,2.612,0,0,0,166.983,9h.026v.947h.367a.784.784,0,0,0,.8-.807Zm-3.185,8.948a1.981,1.981,0,0,1-2.02-2.159,2.025,2.025,0,1,1,4.041,0,1.981,1.981,0,0,1-2.02,2.159" transform="translate(-19985.936 -20444.859)" fill="#218431"/>
  </g>
</svg>
