<svg xmlns="http://www.w3.org/2000/svg" width="41.061" height="36.586" viewBox="0 0 41.061 36.586">
  <g id="Group_10883" data-name="Group 10883" transform="translate(20031 20444.857)">
    <path id="Path_15285" data-name="Path 15285" d="M23.3,48.12a4.065,4.065,0,0,1-5.52-.021l-.226-.207C6.78,38.044-.259,31.6.008,23.552a11.349,11.349,0,0,1,4.8-8.895,11.81,11.81,0,0,1,15.72,2.281,11.787,11.787,0,0,1,15.72-2.281,11.347,11.347,0,0,1,4.8,8.895c.288,8.044-6.772,14.492-17.546,24.381Z" transform="translate(-20031 -20457.461)" fill="#f46c00"/>
    <path id="Path_15286" data-name="Path 15286" d="M29.762,23.833c-1.212-.059-2.851-.083-5.7-.083s-4.495.024-5.7.083a4.727,4.727,0,0,0-3.039,1.133,4.325,4.325,0,0,0-1.346,3.183c-.02,1.293-.025,2.1-.025,4.187s.005,2.913.025,4.187A4.358,4.358,0,0,0,15.317,39.7a4.772,4.772,0,0,0,3.041,1.133c1.208.066,2.852.122,5.7.122s4.489-.056,5.7-.122A4.768,4.768,0,0,0,32.8,39.7a4.361,4.361,0,0,0,1.345-3.182c.02-1.274.025-2.093.025-4.187s-.005-2.894-.025-4.187A4.334,4.334,0,0,0,32.8,24.965a4.737,4.737,0,0,0-3.04-1.132" transform="translate(-20034.529 -20460.283)" fill="#fff"/>
    <path id="Path_15287" data-name="Path 15287" d="M32.642,28.615h-.848V34.7h.848c.717,0,.958-.518.958-1.084V29.7c0-.567-.241-1.084-.958-1.084" transform="translate(-20039.047 -20461.516)"/>
    <path id="Path_15288" data-name="Path 15288" d="M24.969,40.762a1.885,1.885,0,0,0,3.77,0Z" transform="translate(-20037.32 -20464.59)"/>
    <path id="Path_15289" data-name="Path 15289" d="M22.68,33.7c0,.544-.232,1.041-.92,1.041s-.919-.5-.919-1.041V28.615h1.84Z" transform="translate(-20036.275 -20461.516)"/>
  </g>
</svg>
